<mxfile host="65bd71144e">
    <diagram id="ebpcEJE8FsqAFIugqCm4" name="第 1 页">
        <mxGraphModel dx="985" dy="700" grid="1" gridSize="10" guides="1" tooltips="1" connect="1" arrows="1" fold="1" page="1" pageScale="1" pageWidth="827" pageHeight="1169" math="0" shadow="0">
            <root>
                <mxCell id="0"/>
                <mxCell id="1" parent="0"/>
                <mxCell id="11" value="例句" style="edgeStyle=none;html=1;exitX=0.5;exitY=1;exitDx=0;exitDy=0;entryX=0.5;entryY=0;entryDx=0;entryDy=0;sketch=1;" parent="1" source="2" target="3" edge="1">
                    <mxGeometry relative="1" as="geometry"/>
                </mxCell>
                <mxCell id="2" value="&lt;div style=&quot;text-align: left&quot;&gt;在中文中，无论定语是一个短小的形容词，还是很长一段的修饰信息，都会放在修饰词的前面，例如“xxx的yyy”，而英文有所不同，在英语中只有&lt;b&gt;形容词或某些非谓语做定语会放置在名词前面进行修饰&lt;/b&gt;，如果是希望使用一个&lt;b&gt;简单句做定语&lt;/b&gt;修饰则会放置在&lt;b&gt;被修饰词的后面&lt;/b&gt;。&lt;/div&gt;" style="text;html=1;strokeColor=#d79b00;fillColor=#ffe6cc;align=center;verticalAlign=middle;whiteSpace=wrap;rounded=0;comic=1;" parent="1" vertex="1">
                    <mxGeometry x="30" y="40" width="370" height="70" as="geometry"/>
                </mxCell>
                <mxCell id="3" value="&lt;div style=&quot;text-align: left&quot;&gt;这兔子在吃一根&lt;span style=&quot;background-color: rgb(240 , 155 , 50)&quot;&gt;我买来的&lt;/span&gt;胡萝卜。&lt;/div&gt;&lt;div style=&quot;text-align: left&quot;&gt;The rabbit is eating a carrot &lt;span style=&quot;background-color: rgb(240 , 155 , 50)&quot;&gt;that I bought&lt;/span&gt;.&lt;/div&gt;" style="text;html=1;strokeColor=#9673a6;fillColor=#e1d5e7;align=center;verticalAlign=middle;whiteSpace=wrap;rounded=0;comic=1;" parent="1" vertex="1">
                    <mxGeometry x="90" y="150" width="250" height="40" as="geometry"/>
                </mxCell>
                <mxCell id="15" value="&lt;div style=&quot;text-align: left&quot;&gt;其中上面从句的that就是关系词中的关系代词，用于在从句中&lt;b&gt;指代先行词&lt;/b&gt;，在例句中就是a carrot，关系词的分类如下。&lt;/div&gt;" style="text;html=1;strokeColor=#d79b00;fillColor=#ffe6cc;align=center;verticalAlign=middle;whiteSpace=wrap;rounded=0;comic=1;" parent="1" vertex="1">
                    <mxGeometry x="38.99" y="410" width="350" height="50" as="geometry"/>
                </mxCell>
                <mxCell id="20" style="edgeStyle=orthogonalEdgeStyle;html=1;exitX=0.5;exitY=1;exitDx=0;exitDy=0;entryX=0.5;entryY=0;entryDx=0;entryDy=0;sketch=1;curved=1;" parent="1" source="17" target="18" edge="1">
                    <mxGeometry relative="1" as="geometry"/>
                </mxCell>
                <mxCell id="21" style="edgeStyle=orthogonalEdgeStyle;html=1;exitX=0.5;exitY=1;exitDx=0;exitDy=0;entryX=0.5;entryY=0;entryDx=0;entryDy=0;sketch=1;curved=1;" parent="1" source="17" target="19" edge="1">
                    <mxGeometry relative="1" as="geometry"/>
                </mxCell>
                <mxCell id="17" value="&lt;div style=&quot;text-align: left&quot;&gt;关系词&lt;br&gt;&lt;/div&gt;" style="text;html=1;strokeColor=#b85450;fillColor=#f8cecc;align=center;verticalAlign=middle;whiteSpace=wrap;rounded=0;comic=1;" parent="1" vertex="1">
                    <mxGeometry x="308.99" y="490" width="80" height="35" as="geometry"/>
                </mxCell>
                <mxCell id="18" value="&lt;div style=&quot;text-align: left&quot;&gt;关系代词&lt;br&gt;&lt;/div&gt;" style="text;html=1;strokeColor=#d79b00;fillColor=#ffe6cc;align=center;verticalAlign=middle;whiteSpace=wrap;rounded=0;comic=1;" parent="1" vertex="1">
                    <mxGeometry x="228.34000000000003" y="547" width="80" height="35" as="geometry"/>
                </mxCell>
                <mxCell id="19" value="&lt;div style=&quot;text-align: left&quot;&gt;关系副词&lt;br&gt;&lt;/div&gt;" style="text;html=1;strokeColor=#d79b00;fillColor=#ffe6cc;align=center;verticalAlign=middle;whiteSpace=wrap;rounded=0;comic=1;" parent="1" vertex="1">
                    <mxGeometry x="382.99" y="547" width="80" height="35" as="geometry"/>
                </mxCell>
                <mxCell id="74" style="edgeStyle=orthogonalEdgeStyle;curved=1;comic=0;sketch=1;html=1;exitX=0.5;exitY=1;exitDx=0;exitDy=0;entryX=0.5;entryY=0;entryDx=0;entryDy=0;" edge="1" parent="1" source="22" target="61">
                    <mxGeometry relative="1" as="geometry"/>
                </mxCell>
                <mxCell id="22" value="&lt;div style=&quot;text-align: left&quot;&gt;关系代词所构成的从句其实就是：&lt;/div&gt;&lt;div style=&quot;text-align: left&quot;&gt;① 原来的陈述句将先行词用关系代词替代&lt;/div&gt;&lt;div style=&quot;text-align: left&quot;&gt;② 不改变其他部分语序而直接将关系代词提到句子最前面&lt;/div&gt;" style="text;html=1;strokeColor=#9673a6;fillColor=#e1d5e7;align=center;verticalAlign=middle;whiteSpace=wrap;rounded=0;comic=1;" parent="1" vertex="1">
                    <mxGeometry x="76.49" y="660" width="225" height="70" as="geometry"/>
                </mxCell>
                <mxCell id="28" style="edgeStyle=none;html=1;exitX=1;exitY=0.5;exitDx=0;exitDy=0;entryX=0;entryY=0.5;entryDx=0;entryDy=0;sketch=1;" parent="1" source="61" target="59" edge="1">
                    <mxGeometry relative="1" as="geometry">
                        <mxPoint x="267.70000000000005" y="835" as="sourcePoint"/>
                        <mxPoint x="293.99" y="835" as="targetPoint"/>
                    </mxGeometry>
                </mxCell>
                <mxCell id="32" value="" style="edgeStyle=none;html=1;exitX=1;exitY=0.5;exitDx=0;exitDy=0;sketch=1;entryX=0;entryY=0.5;entryDx=0;entryDy=0;" parent="1" source="59" target="60" edge="1">
                    <mxGeometry relative="1" as="geometry">
                        <mxPoint x="483.9000000000001" y="836.7024652622142" as="sourcePoint"/>
                        <mxPoint x="518.99" y="835" as="targetPoint"/>
                    </mxGeometry>
                </mxCell>
                <mxCell id="30" value="" style="edgeStyle=none;html=1;sketch=1;" parent="1" source="29" target="22" edge="1">
                    <mxGeometry relative="1" as="geometry"/>
                </mxCell>
                <mxCell id="29" value="&lt;div style=&quot;text-align: left&quot;&gt;首先来看&lt;b&gt;关系代词&lt;/b&gt;&lt;br&gt;&lt;/div&gt;" style="text;html=1;strokeColor=#d79b00;fillColor=#ffe6cc;align=center;verticalAlign=middle;whiteSpace=wrap;rounded=0;sketch=0;comic=1;" parent="1" vertex="1">
                    <mxGeometry x="133.99" y="610" width="110" height="25" as="geometry"/>
                </mxCell>
                <mxCell id="33" value="&lt;div style=&quot;text-align: left&quot;&gt;that和which&lt;/div&gt;&lt;div style=&quot;text-align: left&quot;&gt;先行词唯一：that，如the largest等定语修饰的词&lt;/div&gt;&lt;div style=&quot;text-align: left&quot;&gt;多选一：whitch&lt;/div&gt;" style="text;html=1;strokeColor=#9673a6;fillColor=#e1d5e7;align=center;verticalAlign=middle;whiteSpace=wrap;rounded=0;comic=1;" parent="1" vertex="1">
                    <mxGeometry x="317.99" y="660" width="210" height="70" as="geometry"/>
                </mxCell>
                <mxCell id="36" style="edgeStyle=none;html=1;exitX=0.5;exitY=1;exitDx=0;exitDy=0;entryX=0.5;entryY=0;entryDx=0;entryDy=0;comic=0;sketch=1;" parent="1" source="34" target="35" edge="1">
                    <mxGeometry relative="1" as="geometry"/>
                </mxCell>
                <mxCell id="34" value="&lt;div style=&quot;text-align: left&quot;&gt;再来看&lt;b&gt;关系副词&lt;/b&gt;&lt;br&gt;&lt;/div&gt;" style="text;html=1;strokeColor=#d79b00;fillColor=#ffe6cc;align=center;verticalAlign=middle;whiteSpace=wrap;rounded=0;comic=1;" parent="1" vertex="1">
                    <mxGeometry x="138.99" y="940" width="110" height="35" as="geometry"/>
                </mxCell>
                <mxCell id="35" value="&lt;div style=&quot;text-align: left&quot;&gt;关系副词的和代词的区别在于，关系副词在从句中的词性为&lt;b&gt;副词（一般为状语）&lt;/b&gt;，而关系代词的词性是代词&lt;br&gt;&lt;/div&gt;&lt;div style=&quot;text-align: left&quot;&gt;关系副词也&lt;b&gt;可以使用&amp;lt;介词+关系代词which&amp;gt;的组合来替代&lt;/b&gt;&lt;/div&gt;" style="text;html=1;strokeColor=#9673a6;fillColor=#e1d5e7;align=center;verticalAlign=middle;whiteSpace=wrap;rounded=0;comic=1;" parent="1" vertex="1">
                    <mxGeometry x="72.24" y="1000" width="243.51" height="90" as="geometry"/>
                </mxCell>
                <mxCell id="40" value="" style="edgeStyle=none;html=1;comic=0;sketch=1;exitX=1;exitY=0.5;exitDx=0;exitDy=0;entryX=0;entryY=0.5;entryDx=0;entryDy=0;" parent="1" source="75" target="76" edge="1">
                    <mxGeometry relative="1" as="geometry">
                        <mxPoint x="317.99" y="1152.141945735395" as="sourcePoint"/>
                        <mxPoint x="400" y="1151.8590282548198" as="targetPoint"/>
                    </mxGeometry>
                </mxCell>
                <mxCell id="46" style="edgeStyle=none;html=1;exitX=1;exitY=0.5;exitDx=0;exitDy=0;entryX=0;entryY=0.5;entryDx=0;entryDy=0;comic=1;sketch=1;" parent="1" source="42" target="43" edge="1">
                    <mxGeometry relative="1" as="geometry"/>
                </mxCell>
                <mxCell id="48" style="edgeStyle=none;html=1;exitX=1;exitY=0.5;exitDx=0;exitDy=0;entryX=0;entryY=0.5;entryDx=0;entryDy=0;comic=1;sketch=1;" parent="1" source="42" target="47" edge="1">
                    <mxGeometry relative="1" as="geometry"/>
                </mxCell>
                <mxCell id="42" value="&lt;div style=&quot;text-align: left&quot;&gt;对比&lt;br&gt;&lt;/div&gt;" style="text;html=1;strokeColor=#b85450;fillColor=#f8cecc;align=center;verticalAlign=middle;whiteSpace=wrap;rounded=0;" parent="1" vertex="1">
                    <mxGeometry x="47.7" y="1395" width="60" height="30" as="geometry"/>
                </mxCell>
                <mxCell id="50" value="" style="edgeStyle=none;html=1;comic=0;sketch=1;" parent="1" source="43" target="49" edge="1">
                    <mxGeometry relative="1" as="geometry"/>
                </mxCell>
                <mxCell id="43" value="&lt;div style=&quot;text-align: left&quot;&gt;The rabbit ate the carrot which was on the table.&lt;br&gt;&lt;/div&gt;" style="text;html=1;strokeColor=#d79b00;fillColor=#ffe6cc;align=center;verticalAlign=middle;whiteSpace=wrap;rounded=0;" parent="1" vertex="1">
                    <mxGeometry x="146.41000000000003" y="1375" width="261.29" height="30" as="geometry"/>
                </mxCell>
                <mxCell id="52" style="edgeStyle=none;html=1;exitX=1;exitY=0.5;exitDx=0;exitDy=0;comic=0;sketch=1;" parent="1" source="47" target="51" edge="1">
                    <mxGeometry relative="1" as="geometry"/>
                </mxCell>
                <mxCell id="47" value="&lt;div style=&quot;text-align: left&quot;&gt;The rabbit ate the carrot, which was on the table.&lt;br&gt;&lt;/div&gt;" style="text;html=1;strokeColor=#d79b00;fillColor=#ffe6cc;align=center;verticalAlign=middle;whiteSpace=wrap;rounded=0;" parent="1" vertex="1">
                    <mxGeometry x="146.41000000000003" y="1415" width="271.29" height="30" as="geometry"/>
                </mxCell>
                <mxCell id="49" value="限定了胡萝卜在桌面上" style="whiteSpace=wrap;html=1;fillColor=#e1d5e7;strokeColor=#9673a6;rounded=0;" parent="1" vertex="1">
                    <mxGeometry x="440.83" y="1370" width="136.87" height="35" as="geometry"/>
                </mxCell>
                <mxCell id="51" value="单纯引用胡萝卜组成后面的句子" style="whiteSpace=wrap;html=1;fillColor=#e1d5e7;strokeColor=#9673a6;rounded=0;" parent="1" vertex="1">
                    <mxGeometry x="451.7" y="1412.5" width="176" height="32.5" as="geometry"/>
                </mxCell>
                <mxCell id="53" value="由于可以引用前面的部分造句，因而非限定性形容词性从句也就有了补充说明的特性，常用作插入语" style="whiteSpace=wrap;html=1;fillColor=#e1d5e7;strokeColor=#9673a6;rounded=0;" parent="1" vertex="1">
                    <mxGeometry x="146.41000000000003" y="1460" width="221.29" height="60" as="geometry"/>
                </mxCell>
                <mxCell id="56" value="例句" style="edgeStyle=none;html=1;comic=0;sketch=1;" parent="1" source="54" target="55" edge="1">
                    <mxGeometry relative="1" as="geometry"/>
                </mxCell>
                <mxCell id="54" value="另外，非限定性形容词性从句&lt;b&gt;不一定是补充某个先行词&lt;/b&gt;，还可以&lt;b&gt;指代前面的整句话&lt;/b&gt;来进行补充说明" style="whiteSpace=wrap;html=1;fillColor=#d5e8d4;strokeColor=#82b366;rounded=0;align=left;comic=1;" parent="1" vertex="1">
                    <mxGeometry x="47.70000000000002" y="1540" width="221.29" height="60" as="geometry"/>
                </mxCell>
                <mxCell id="55" value="&lt;span style=&quot;background-color: rgb(152 , 232 , 72)&quot;&gt;The rabbit ate the carrot&lt;/span&gt;, &lt;span style=&quot;background-color: rgb(240 , 155 , 50)&quot;&gt;which&lt;/span&gt; was not surprising." style="whiteSpace=wrap;html=1;align=left;fillColor=#e1d5e7;strokeColor=#9673a6;rounded=0;comic=1;" parent="1" vertex="1">
                    <mxGeometry x="327.7" y="1552.5" width="281" height="35" as="geometry"/>
                </mxCell>
                <mxCell id="58" value="" style="shape=image;imageAspect=0;aspect=fixed;verticalLabelPosition=bottom;verticalAlign=top;comic=1;sketch=1;image=https://codereaper-image-bed.oss-cn-shenzhen.aliyuncs.com/img/image-20221025124105351.png;imageBorder=default;" vertex="1" parent="1">
                    <mxGeometry x="33.28" y="220" width="407.55" height="149.7" as="geometry"/>
                </mxCell>
                <mxCell id="59" value="" style="shape=image;imageAspect=0;aspect=fixed;verticalLabelPosition=bottom;verticalAlign=top;comic=1;sketch=1;image=https://codereaper-image-bed.oss-cn-shenzhen.aliyuncs.com/img/image-20221025124232646.png;imageBorder=default;" vertex="1" parent="1">
                    <mxGeometry x="293.99" y="758.5" width="196.93" height="153" as="geometry"/>
                </mxCell>
                <mxCell id="60" value="" style="shape=image;imageAspect=0;aspect=fixed;verticalLabelPosition=bottom;verticalAlign=top;comic=1;sketch=1;image=https://codereaper-image-bed.oss-cn-shenzhen.aliyuncs.com/img/image-20221025124350532.png;imageBorder=default;" vertex="1" parent="1">
                    <mxGeometry x="527.99" y="756.11" width="200.1" height="157.78" as="geometry"/>
                </mxCell>
                <mxCell id="61" value="" style="shape=image;imageAspect=0;aspect=fixed;verticalLabelPosition=bottom;verticalAlign=top;comic=1;sketch=1;image=https://codereaper-image-bed.oss-cn-shenzhen.aliyuncs.com/img/image-20221025124432732.png;imageBorder=default;" vertex="1" parent="1">
                    <mxGeometry x="38.99" y="760.67" width="229.41" height="148.67" as="geometry"/>
                </mxCell>
                <mxCell id="80" style="edgeStyle=orthogonalEdgeStyle;curved=1;comic=0;sketch=1;html=1;exitX=1;exitY=0.5;exitDx=0;exitDy=0;entryX=0;entryY=0.5;entryDx=0;entryDy=0;" edge="1" parent="1" source="65" target="79">
                    <mxGeometry relative="1" as="geometry"/>
                </mxCell>
                <mxCell id="82" style="edgeStyle=orthogonalEdgeStyle;curved=1;comic=0;sketch=1;html=1;exitX=1;exitY=0.5;exitDx=0;exitDy=0;entryX=0;entryY=0.5;entryDx=0;entryDy=0;" edge="1" parent="1" source="65" target="81">
                    <mxGeometry relative="1" as="geometry"/>
                </mxCell>
                <mxCell id="65" value="&lt;div style=&quot;text-align: left&quot;&gt;限定性与非限定性&lt;br&gt;&lt;/div&gt;" style="text;html=1;strokeColor=#b85450;fillColor=#f8cecc;align=center;verticalAlign=middle;whiteSpace=wrap;rounded=0;comic=1;" vertex="1" parent="1">
                    <mxGeometry x="47.7" y="1280" width="110" height="35" as="geometry"/>
                </mxCell>
                <mxCell id="67" value="&lt;div style=&quot;text-align: left&quot;&gt;对比&lt;br&gt;&lt;/div&gt;" style="text;html=1;strokeColor=#b85450;fillColor=#f8cecc;align=center;verticalAlign=middle;whiteSpace=wrap;rounded=0;comic=1;" vertex="1" parent="1">
                    <mxGeometry x="47.7" y="1395" width="60" height="30" as="geometry"/>
                </mxCell>
                <mxCell id="68" value="&lt;div style=&quot;text-align: left&quot;&gt;The rabbit ate the carrot which was on the table.&lt;br&gt;&lt;/div&gt;" style="text;html=1;strokeColor=#d79b00;fillColor=#ffe6cc;align=center;verticalAlign=middle;whiteSpace=wrap;rounded=0;comic=1;" vertex="1" parent="1">
                    <mxGeometry x="146.41000000000003" y="1375" width="261.29" height="30" as="geometry"/>
                </mxCell>
                <mxCell id="69" value="&lt;div style=&quot;text-align: left&quot;&gt;The rabbit ate the carrot, which was on the table.&lt;br&gt;&lt;/div&gt;" style="text;html=1;strokeColor=#d79b00;fillColor=#ffe6cc;align=center;verticalAlign=middle;whiteSpace=wrap;rounded=0;comic=1;" vertex="1" parent="1">
                    <mxGeometry x="146.41000000000003" y="1415" width="271.29" height="30" as="geometry"/>
                </mxCell>
                <mxCell id="70" value="限定了胡萝卜在桌面上" style="whiteSpace=wrap;html=1;fillColor=#e1d5e7;strokeColor=#9673a6;rounded=0;comic=1;" vertex="1" parent="1">
                    <mxGeometry x="440.83" y="1370" width="136.87" height="35" as="geometry"/>
                </mxCell>
                <mxCell id="71" value="单纯引用胡萝卜组成后面的句子" style="whiteSpace=wrap;html=1;fillColor=#e1d5e7;strokeColor=#9673a6;rounded=0;comic=1;" vertex="1" parent="1">
                    <mxGeometry x="451.7" y="1412.5" width="176" height="32.5" as="geometry"/>
                </mxCell>
                <mxCell id="72" value="由于可以引用前面的部分造句，因而非限定性形容词性从句也就有了&lt;b&gt;补充说明的特性&lt;/b&gt;，常用作&lt;b&gt;插入语&lt;/b&gt;" style="whiteSpace=wrap;html=1;fillColor=#e1d5e7;strokeColor=#9673a6;rounded=0;comic=1;align=left;" vertex="1" parent="1">
                    <mxGeometry x="146.41000000000003" y="1460" width="221.29" height="60" as="geometry"/>
                </mxCell>
                <mxCell id="75" value="" style="shape=image;imageAspect=0;aspect=fixed;verticalLabelPosition=bottom;verticalAlign=top;comic=1;sketch=1;image=https://codereaper-image-bed.oss-cn-shenzhen.aliyuncs.com/img/image-20221025125141726.png;imageBorder=default;" vertex="1" parent="1">
                    <mxGeometry x="38.99" y="1105.07" width="326.9" height="94.93" as="geometry"/>
                </mxCell>
                <mxCell id="76" value="" style="shape=image;imageAspect=0;aspect=fixed;verticalLabelPosition=bottom;verticalAlign=top;comic=1;sketch=1;image=https://codereaper-image-bed.oss-cn-shenzhen.aliyuncs.com/img/image-20221025125241936.png;imageBorder=default;" vertex="1" parent="1">
                    <mxGeometry x="410" y="1104.3300000000002" width="352.99" height="96.4" as="geometry"/>
                </mxCell>
                <mxCell id="77" value="&lt;div style=&quot;text-align: left&quot;&gt;被修饰部分结构：&lt;/div&gt;&lt;div style=&quot;text-align: left&quot;&gt;被修饰词 + 从句（先行词 + 陈述句后半部分）&lt;/div&gt;" style="text;html=1;strokeColor=#d79b00;fillColor=#ffe6cc;align=center;verticalAlign=middle;whiteSpace=wrap;rounded=0;comic=1;sketch=1;" vertex="1" parent="1">
                    <mxGeometry x="540" y="690" width="250" height="40" as="geometry"/>
                </mxCell>
                <mxCell id="84" style="edgeStyle=orthogonalEdgeStyle;curved=1;comic=0;sketch=1;html=1;exitX=1;exitY=0.5;exitDx=0;exitDy=0;entryX=0;entryY=0.5;entryDx=0;entryDy=0;" edge="1" parent="1" source="79" target="83">
                    <mxGeometry relative="1" as="geometry"/>
                </mxCell>
                <mxCell id="79" value="&lt;div style=&quot;text-align: left&quot;&gt;限定性&lt;br&gt;&lt;/div&gt;" style="text;html=1;strokeColor=#6c8ebf;fillColor=#dae8fc;align=center;verticalAlign=middle;whiteSpace=wrap;rounded=0;comic=1;" vertex="1" parent="1">
                    <mxGeometry x="200" y="1250" width="60" height="30" as="geometry"/>
                </mxCell>
                <mxCell id="86" style="edgeStyle=orthogonalEdgeStyle;curved=1;comic=0;sketch=1;html=1;exitX=1;exitY=0.5;exitDx=0;exitDy=0;entryX=0;entryY=0.5;entryDx=0;entryDy=0;" edge="1" parent="1" source="81" target="85">
                    <mxGeometry relative="1" as="geometry"/>
                </mxCell>
                <mxCell id="81" value="&lt;div style=&quot;text-align: left&quot;&gt;非限定性&lt;br&gt;&lt;/div&gt;" style="text;html=1;strokeColor=#6c8ebf;fillColor=#dae8fc;align=center;verticalAlign=middle;whiteSpace=wrap;rounded=0;comic=1;" vertex="1" parent="1">
                    <mxGeometry x="200" y="1310" width="60" height="30" as="geometry"/>
                </mxCell>
                <mxCell id="83" value="&lt;div style=&quot;text-align: left&quot;&gt;上面提到的例句基本都是限定性的，可以&lt;b&gt;限定先行词的范围&lt;/b&gt;&lt;br&gt;&lt;/div&gt;" style="text;html=1;strokeColor=#d79b00;fillColor=#ffe6cc;align=center;verticalAlign=middle;whiteSpace=wrap;rounded=0;comic=1;" vertex="1" parent="1">
                    <mxGeometry x="293.99" y="1250" width="328.51" height="30" as="geometry"/>
                </mxCell>
                <mxCell id="85" value="&lt;div style=&quot;text-align: left&quot;&gt;非限定性形容词从句相当于只是对前面提到的内容或先行词进行指代（重用）造句而已，一般用到的引导词为which。&lt;br&gt;&lt;/div&gt;" style="text;html=1;strokeColor=#d79b00;fillColor=#ffe6cc;align=center;verticalAlign=middle;whiteSpace=wrap;rounded=0;comic=1;" vertex="1" parent="1">
                    <mxGeometry x="293.99" y="1305" width="316.01" height="40" as="geometry"/>
                </mxCell>
            </root>
        </mxGraphModel>
    </diagram>
</mxfile>